<?xml version="1.0" encoding="UTF-8" standalone="no"?>
<svg
   xmlns:dc="http://purl.org/dc/elements/1.1/"
   xmlns:cc="http://creativecommons.org/ns#"
   xmlns:rdf="http://www.w3.org/1999/02/22-rdf-syntax-ns#"
   xmlns:svg="http://www.w3.org/2000/svg"
   xmlns="http://www.w3.org/2000/svg"
   xmlns:sodipodi="http://sodipodi.sourceforge.net/DTD/sodipodi-0.dtd"
   xmlns:inkscape="http://www.inkscape.org/namespaces/inkscape"
   width="131.65625mm"
   height="105.47109mm"
   viewBox="0 0 131.65625 105.47109"
   version="1.1"
   id="svg8"
   inkscape:version="1.0.2 (e86c870879, 2021-01-15)"
   sodipodi:docname="kb-outline.svg">
  <defs
     id="defs2">
    <inkscape:path-effect
       effect="bspline"
       id="path-effect847"
       is_visible="true"
       lpeversion="1"
       weight="33.333333"
       steps="2"
       helper_size="0"
       apply_no_weight="true"
       apply_with_weight="true"
       only_selected="false" />
    <inkscape:path-effect
       effect="spiro"
       id="path-effect843"
       is_visible="true"
       lpeversion="1" />
  </defs>
  <sodipodi:namedview
     id="base"
     pagecolor="#ffffff"
     bordercolor="#666666"
     borderopacity="1.0"
     inkscape:pageopacity="0.0"
     inkscape:pageshadow="2"
     inkscape:zoom="1.4"
     inkscape:cx="214.43203"
     inkscape:cy="222.5918"
     inkscape:document-units="mm"
     inkscape:current-layer="layer2"
     inkscape:document-rotation="0"
     showgrid="false"
     inkscape:window-width="1918"
     inkscape:window-height="1058"
     inkscape:window-x="0"
     inkscape:window-y="20"
     inkscape:window-maximized="0"
     fit-margin-top="0"
     fit-margin-left="0"
     fit-margin-right="0"
     fit-margin-bottom="0" />
  <metadata
     id="metadata5">
    <rdf:RDF>
      <cc:Work
         rdf:about="">
        <dc:format>image/svg+xml</dc:format>
        <dc:type
           rdf:resource="http://purl.org/dc/dcmitype/StillImage" />
        <dc:title></dc:title>
      </cc:Work>
    </rdf:RDF>
  </metadata>
  <g
     inkscape:label="Layer 1"
     inkscape:groupmode="layer"
     id="layer1"
     transform="translate(-30.904245,-82.750113)">
    <path
       style="fill:#000000;fill-opacity:1;stroke:#000000;stroke-width:0.3;stroke-linecap:butt;stroke-linejoin:miter;stroke-miterlimit:4;stroke-dasharray:none;stroke-opacity:1"
       d="m 33.388163,181.68318 c 0,0 3.636631,-16.30827 6.206243,-31.59234 2.569615,-15.28407 6.823879,-46.28344 6.823879,-46.28344 0,0 0.163603,-4.082854 1.824719,-3.935444 1.661112,0.147414 1.854429,1.675264 1.758015,3.465884 -0.0314,0.58313 -6.024134,34.85386 -8.291928,47.81658 -2.193233,12.53653 -5.42844,29.32711 -5.981203,31.41203 -0.671473,2.53268 -1.777567,1.98581 -1.777567,1.98581 -1.499313,0.15284 -0.562158,-2.86908 -0.562158,-2.86908 z"
       id="path116"
       sodipodi:nodetypes="cscsssscc" />
    <path
       style="fill:#000000;fill-opacity:1;stroke:#000000;stroke-width:0.3;stroke-linecap:butt;stroke-linejoin:miter;stroke-miterlimit:4;stroke-dasharray:none;stroke-opacity:1"
       d="M 133.79761,91.696695 Z"
       id="path849" />
    <path
       style="fill:#000000;fill-opacity:1;stroke:#000000;stroke-width:0.3;stroke-linecap:butt;stroke-linejoin:miter;stroke-miterlimit:4;stroke-dasharray:none;stroke-opacity:1"
       d="m 148.12275,86.772034 c 6.07056,3.341435 4.12633,12.696766 -0.856,17.498106 -4.76108,4.58813 -11.60653,9.14409 -12.74418,10.15864 -1.13766,1.01454 -2.01037,1.56294 -1.7342,1.85312 0.27618,0.29019 0.59196,0.73923 2.96384,0.93308 2.37188,0.19385 20.68672,-0.25213 19.96649,17.67106 -0.80547,20.04449 -30.54863,34.70275 -48.51822,34.61896 -16.067586,-0.0749 -13.457281,-8.45221 -13.133904,-9.58792 0.323376,-1.13571 1.000125,-1.94036 -0.260448,-1.94155 -1.26057,-0.001 -6.981095,4.0177 -8.952151,4.72339 -1.971056,0.7057 -16.264794,5.73596 -33.228557,5.49907 -16.963763,-0.2369 -18.744398,-2.8498 -20.229438,-4.72914 -1.48504,-1.87934 1.050872,-13.32765 26.185609,-34.03054 16.257854,-13.3912 25.937012,-20.46517 38.335195,-28.15361 0.880042,-0.54574 1.802373,-1.536132 2.745836,-1.632909 1.449768,-0.148713 1.732558,1.291289 -0.513245,3.276819 -14.941012,10.29431 -29.874806,21.43459 -44.340073,33.88326 -20.141015,17.45849 -20.332466,25.06416 -20.000203,26.04801 0.630895,1.86811 11.695332,2.7218 18.211206,2.78661 11.876621,0.11813 26.20514,-1.7201 39.094113,-8.13426 9.67782,-4.81614 6.922973,-8.45014 21.90315,-17.28816 14.98018,-8.83802 31.48269,-15.22284 39.53411,-17.25893 8.05142,-2.03608 10.70765,-0.89243 9.63096,-0.0189 -12.86036,4.4746 -26.04588,8.46287 -38.38436,14.67056 -6.09351,3.09999 -12.25131,6.30812 -17.51742,10.66803 -3.3656,2.78644 -6.736964,5.86806 -8.787601,9.72635 -0.694108,1.30597 -2.253827,5.02345 -0.552905,6.22767 15.670706,7.22147 43.136546,-6.71016 51.267806,-18.10931 9.39073,-14.00156 1.3939,-21.89462 -0.4814,-23.00934 -5.20964,-3.09672 -5.71144,-2.57286 -10.55336,-2.99624 -5.47721,-0.47894 -9.02139,-2.08314 -6.86769,-5.01563 3.74496,-5.09915 16.61101,-11.62325 18.38127,-20.072838 0.43563,-2.079282 -0.59033,-8.392938 -7.63766,-4.882912 -12.84338,9.246556 -21.7524,27.02114 -27.29531,39.96794 -1.89063,4.36177 -4.28496,11.84291 -5.76261,18.8369 -0.48556,2.29822 -1.80176,10.56088 -3.35873,10.63904 -2.52474,0.12674 0.47307,-12.06609 1.79931,-17.92172 2.35486,-10.39723 4.41265,-20.55919 7.10118,-30.71928 2.49283,-9.42051 5.39679,-29.118142 8.36526,-28.01185 1.8912,0.704814 -1.79625,10.903294 -2.94415,16.305869 -1.47056,6.921171 -2.84765,12.368411 -5.04746,20.618171 -0.17056,0.63964 -0.96378,2.47274 -0.0899,2.74054 1.45499,0.44587 6.9028,-14.02162 15.46512,-25.193292 5.99418,-7.820908 12.45477,-14.157897 18.84072,-10.642864 z"
       id="path851"
       sodipodi:nodetypes="sssssssscssssssccsssssccssccssssccssssssssss" />
    <path
       style="fill:#000000;fill-opacity:1;stroke:#000000;stroke-width:0.3;stroke-linecap:butt;stroke-linejoin:miter;stroke-miterlimit:4;stroke-dasharray:none;stroke-opacity:1"
       d="m 99.538609,141.69348 c 0.497711,0.51574 2.199431,-0.10852 3.043001,-0.72297 0.84356,-0.61444 1.97496,-1.56487 1.78268,-2.72028 -0.23095,-1.38772 -3.11644,-4.09878 -10.873555,-1.53841 -6.497283,2.14454 -9.183709,7.21681 -9.063335,8.58083 0.05336,0.60469 0.336258,1.21739 0.990463,1.82145 0.314563,0.29045 0.59173,0.35942 0.531198,0.71495 -0.12015,0.7057 -2.949243,2.47165 -4.757884,4.15348 -1.808644,1.68184 -2.615055,3.20058 -2.510293,4.874 0.135701,2.16764 1.436192,6.50207 12.376607,0.9601 10.940419,-5.54197 8.15367,-5.53843 8.15367,-5.53843 0,0 -1.561418,-0.26885 -5.995882,2.00875 -4.340117,2.22914 -6.373176,2.96516 -9.235249,3.01376 -2.104216,0.0357 -2.229572,-0.33179 -1.067351,-1.51734 1.283743,-1.30951 4.543178,-5.02377 8.193018,-6.40941 2.977265,-1.13029 2.220673,-3.54997 -1.004556,-3.59338 -3.225228,-0.0434 -3.781137,-0.0211 -0.571296,-2.32752 2.856214,-2.05236 3.373285,-2.39832 5.984032,-3.6076 2.61075,-1.20929 2.682416,-1.01929 3.891048,-1.03743 1.561765,-0.0234 1.353765,0.92797 0.670615,1.61132 -0.68607,0.68628 -0.67668,1.12932 -0.536931,1.27413 z"
       id="path853"
       sodipodi:nodetypes="sssssssssscssssssssss" />
    <path
       style="fill:#000000;fill-opacity:1;stroke:#000000;stroke-width:0.3;stroke-linecap:butt;stroke-linejoin:miter;stroke-miterlimit:4;stroke-dasharray:none;stroke-opacity:1"
       d="m 104.12709,110.33248 c -2.17662,7.5611 -17.575636,71.06449 -17.960134,73.78099 -0.3845,2.71649 -1.239925,4.04552 -1.923288,3.95333 -0.683363,-0.0922 -1.175775,-0.94315 -0.845126,-3.1458 1.464706,-9.75727 17.124228,-73.56344 17.433768,-75.56521 0.33595,-2.17255 1.49165,-3.97687 2.49247,-3.79998 1.18045,0.20864 1.67215,1.75505 0.80231,4.77667 z"
       id="path855"
       sodipodi:nodetypes="sssssss" />
  </g>
  <g
     inkscape:groupmode="layer"
     id="layer2"
     inkscape:label="Layer 2"
     transform="translate(0.15542699,0.14877302)">
    <path
       style="fill:#ffffff;fill-opacity:1;stroke:none;stroke-width:0.264583px;stroke-linecap:butt;stroke-linejoin:miter;stroke-opacity:1"
       d="m 2.328491,98.784295 c 0,0 3.636631,-16.30827 6.206243,-31.59234 2.569615,-15.28407 6.823879,-46.28344 6.823879,-46.28344 0,0 0.163603,-4.082854 1.824719,-3.935444 1.661112,0.147414 1.854429,1.675264 1.758015,3.465884 -0.0314,0.58313 -6.024134,34.85386 -8.291928,47.81658 -2.193233,12.53653 -5.42844,29.32711 -5.981203,31.41203 -0.671473,2.532675 -1.777567,1.985805 -1.777567,1.985805 -1.499313,0.15284 -0.562158,-2.869075 -0.562158,-2.869075 z"
       id="path116-5"
       sodipodi:nodetypes="cscsssscc" />
    <path
       style="fill:#ffffff;fill-opacity:1;stroke:none;stroke-width:0.264583px;stroke-linecap:butt;stroke-linejoin:miter;stroke-opacity:1"
       d="M 102.73794,8.79781 Z"
       id="path849-6" />
    <path
       style="fill:#ffffff;fill-opacity:1;stroke:none;stroke-width:0.264583px;stroke-linecap:butt;stroke-linejoin:miter;stroke-opacity:1"
       d="m 117.06308,3.873149 c 6.07056,3.341435 4.12633,12.696766 -0.856,17.498106 -4.76108,4.58813 -11.60653,9.14409 -12.74418,10.15864 -1.13766,1.01454 -2.01037,1.56294 -1.7342,1.85312 0.27618,0.29019 0.59196,0.73923 2.96384,0.93308 2.37188,0.19385 20.68672,-0.25213 19.96649,17.67106 -0.80547,20.04449 -30.548632,34.70275 -48.518222,34.61896 -16.067586,-0.0749 -13.457281,-8.45221 -13.133904,-9.58792 0.323376,-1.13571 1.000125,-1.94036 -0.260448,-1.94155 -1.26057,-0.001 -6.981095,4.0177 -8.952151,4.72339 -1.971056,0.7057 -16.264794,5.73596 -33.228557,5.49907 -16.963763,-0.2369 -18.744398,-2.8498 -20.229438,-4.72914 -1.48504,-1.87934 1.050872,-13.32765 26.185609,-34.03054 16.257854,-13.3912 25.937012,-20.46517 38.335195,-28.15361 0.880042,-0.54574 1.802373,-1.536132 2.745836,-1.632909 1.449768,-0.148713 1.732558,1.291289 -0.513245,3.276819 -14.941012,10.29431 -29.874806,21.43459 -44.340073,33.88326 -20.141015,17.45849 -20.332466,25.06416 -20.000203,26.04801 0.630895,1.86811 11.695332,2.7218 18.211206,2.78661 11.876621,0.11813 26.20514,-1.7201 39.094113,-8.13426 9.67782,-4.81614 6.922973,-8.45014 21.90315,-17.28816 14.98018,-8.83802 31.482692,-15.22284 39.534112,-17.25893 8.05142,-2.03608 10.70765,-0.89243 9.63096,-0.0189 -12.86036,4.4746 -26.04588,8.46287 -38.384362,14.67056 -6.09351,3.09999 -12.25131,6.30812 -17.51742,10.66803 -3.3656,2.78644 -6.736964,5.86806 -8.787601,9.72635 -0.694108,1.30597 -2.253827,5.02345 -0.552905,6.22767 15.670706,7.22147 43.136548,-6.71016 51.267808,-18.10931 9.39073,-14.00156 1.3939,-21.89462 -0.4814,-23.00934 -5.20964,-3.09672 -5.71144,-2.57286 -10.55336,-2.99624 -5.47721,-0.47894 -9.021392,-2.08314 -6.867692,-5.01563 3.744962,-5.09915 16.611012,-11.62325 18.381272,-20.072838 0.43563,-2.079282 -0.59033,-8.392938 -7.63766,-4.882912 -12.843382,9.246556 -21.752402,27.02114 -27.295312,39.96794 -1.89063,4.36177 -4.28496,11.84291 -5.76261,18.8369 -0.48556,2.29822 -1.80176,10.56088 -3.35873,10.63904 -2.52474,0.12674 0.47307,-12.06609 1.79931,-17.92172 2.35486,-10.39723 4.41265,-20.55919 7.10118,-30.71928 2.49283,-9.42051 5.39679,-29.118142 8.36526,-28.01185 1.8912,0.704814 -1.79625,10.903294 -2.94415,16.305869 -1.47056,6.921171 -2.84765,12.368411 -5.04746,20.618171 -0.17056,0.63964 -0.96378,2.47274 -0.0899,2.74054 1.45499,0.44587 6.9028,-14.02162 15.46512,-25.193292 C 104.21654,6.695105 110.67713,0.358116 117.06308,3.873149 Z"
       id="path851-2"
       sodipodi:nodetypes="sssssssscssssssccsssssccssccssssccssssssssss" />
    <path
       style="fill:#ffffff;fill-opacity:1;stroke:none;stroke-width:0.1;stroke-linecap:butt;stroke-linejoin:miter;stroke-miterlimit:4;stroke-dasharray:none;stroke-opacity:1"
       d="m 68.478937,58.794595 c 0.497711,0.51574 2.199431,-0.10852 3.043001,-0.72297 0.84356,-0.61444 1.97496,-1.56487 1.78268,-2.72028 -0.23095,-1.38772 -3.11644,-4.09878 -10.873555,-1.53841 -6.497283,2.14454 -9.183709,7.21681 -9.063335,8.58083 0.05336,0.60469 0.336258,1.21739 0.990463,1.82145 0.314563,0.29045 0.59173,0.35942 0.531198,0.71495 -0.12015,0.7057 -2.949243,2.47165 -4.757884,4.15348 -1.808644,1.68184 -2.615055,3.20058 -2.510293,4.874 0.135701,2.16764 1.436192,6.50207 12.376607,0.9601 10.940419,-5.54197 8.15367,-5.53843 8.15367,-5.53843 0,0 -1.561418,-0.26885 -5.995882,2.00875 -4.340117,2.22914 -6.373176,2.96516 -9.235249,3.01376 -2.104216,0.0357 -2.229572,-0.33179 -1.067351,-1.51734 1.283743,-1.30951 4.543178,-5.02377 8.193018,-6.40941 2.977265,-1.13029 2.220673,-3.54997 -1.004556,-3.59338 -3.225228,-0.0434 -3.781137,-0.0211 -0.571296,-2.32752 2.856214,-2.05236 3.373285,-2.39832 5.984032,-3.6076 2.61075,-1.20929 2.682416,-1.01929 3.891048,-1.03743 1.561765,-0.0234 1.353765,0.92797 0.670615,1.61132 -0.68607,0.68628 -0.67668,1.12932 -0.536931,1.27413 z"
       id="path853-9"
       sodipodi:nodetypes="sssssssssscssssssssss" />
    <path
       style="fill:#ffffff;fill-opacity:1;stroke:none;stroke-width:0.264583px;stroke-linecap:butt;stroke-linejoin:miter;stroke-opacity:1"
       d="m 73.067418,27.433595 c -2.17662,7.5611 -17.575636,71.06449 -17.960134,73.780995 -0.3845,2.71648 -1.239925,4.04552 -1.923288,3.95332 -0.683363,-0.0922 -1.175775,-0.94315 -0.845126,-3.1458 1.464706,-9.757265 17.124228,-73.563435 17.433768,-75.565205 0.33595,-2.17255 1.49165,-3.97687 2.49247,-3.79998 1.18045,0.20864 1.67215,1.75505 0.80231,4.77667 z"
       id="path855-1"
       sodipodi:nodetypes="sssssss" />
  </g>
</svg>
